<svg width="200" height="60" viewBox="0 0 200 60" fill="none" xmlns="http://www.w3.org/2000/svg">
  <defs>
    <linearGradient id="logoGradient" x1="0%" y1="0%" x2="100%" y2="0%">
      <stop offset="0%" style="stop-color:#60a5fa;stop-opacity:1" />
      <stop offset="100%" style="stop-color:#2563eb;stop-opacity:1" />
    </linearGradient>
    <linearGradient id="iconGradient" x1="0%" y1="0%" x2="100%" y2="100%">
      <stop offset="0%" style="stop-color:#38bdf8;stop-opacity:1" />
      <stop offset="100%" style="stop-color:#1d4ed8;stop-opacity:1" />
    </linearGradient>
  </defs>
  
  <!-- Audio Wave Icon -->
  <g transform="translate(10, 15)">
    <!-- Main headphone shape -->
    <path d="M15 5C15 2.24 12.76 0 10 0S5 2.24 5 0v10c0 1.66 1.34 3 3 3h1v-6H8V5c0-1.1.9-2 2-2s2 .9 2 2v2h-1v6h1c1.66 0 3-1.34 3-3V5z" fill="url(#iconGradient)" transform="scale(1.5)"/>
    
    <!-- Sound waves -->
    <circle cx="25" cy="15" r="2" fill="url(#iconGradient)" opacity="0.7"/>
    <circle cx="25" cy="15" r="4" fill="none" stroke="url(#iconGradient)" stroke-width="1.5" opacity="0.5"/>
    <circle cx="25" cy="15" r="6" fill="none" stroke="url(#iconGradient)" stroke-width="1" opacity="0.3"/>
    
    <circle cx="-5" cy="15" r="2" fill="url(#iconGradient)" opacity="0.7"/>
    <circle cx="-5" cy="15" r="4" fill="none" stroke="url(#iconGradient)" stroke-width="1.5" opacity="0.5"/>
    <circle cx="-5" cy="15" r="6" fill="none" stroke="url(#iconGradient)" stroke-width="1" opacity="0.3"/>
  </g>
  
  <!-- Text -->
  <text x="60" y="25" font-family="Arial, sans-serif" font-size="18" font-weight="bold" fill="url(#logoGradient)">TuneZone</text>
  <text x="60" y="42" font-family="Arial, sans-serif" font-size="10" fill="#60a5fa" opacity="0.8">Đỉnh cao âm thanh</text>
</svg>
