<svg width="200" height="60" viewBox="0 0 200 60" fill="none" xmlns="http://www.w3.org/2000/svg">
  <defs>
    <linearGradient id="logoGradient" x1="0%" y1="0%" x2="100%" y2="0%">
      <stop offset="0%" style="stop-color:#60a5fa;stop-opacity:1" />
      <stop offset="100%" style="stop-color:#2563eb;stop-opacity:1" />
    </linearGradient>
    <linearGradient id="iconGradient" x1="0%" y1="0%" x2="100%" y2="100%">
      <stop offset="0%" style="stop-color:#38bdf8;stop-opacity:1" />
      <stop offset="100%" style="stop-color:#1d4ed8;stop-opacity:1" />
    </linearGradient>
  </defs>
  
  <!-- Icon/Symbol -->
  <g transform="translate(10, 10)">
    <!-- Headphone outline -->
    <path d="M20 8C20 3.58 16.42 0 12 0S4 3.58 4 8v8c0 2.21 1.79 4 4 4h2v-8H8V8c0-2.21 1.79-4 4-4s4 1.79 4 4v4h-2v8h2c2.21 0 4-1.79 4-4V8z" fill="url(#iconGradient)"/>
    <!-- Sound waves -->
    <path d="M26 12c0-1.1-.9-2-2-2s-2 .9-2 2 .9 2 2 2 2-.9 2-2z" fill="url(#iconGradient)" opacity="0.7"/>
    <path d="M30 12c0-2.2-1.8-4-4-4s-4 1.8-4 4 1.8 4 4 4 4-1.8 4-4z" fill="none" stroke="url(#iconGradient)" stroke-width="2" opacity="0.5"/>
    <path d="M2 12c0-1.1.9-2 2-2s2 .9 2 2-.9 2-2 2-2-.9-2-2z" fill="url(#iconGradient)" opacity="0.7"/>
    <path d="M-2 12c0-2.2 1.8-4 4-4s4 1.8 4 4-1.8 4-4 4-4-1.8-4-4z" fill="none" stroke="url(#iconGradient)" stroke-width="2" opacity="0.5"/>
  </g>
  
  <!-- Text -->
  <text x="60" y="25" font-family="Arial, sans-serif" font-size="18" font-weight="bold" fill="url(#logoGradient)">TuneZone</text>
  <text x="60" y="42" font-family="Arial, sans-serif" font-size="10" fill="#60a5fa" opacity="0.8">Đỉnh cao âm thanh</text>
</svg>
